<?xml version="1.0" encoding="UTF-8" standalone="no"?>
<!-- Created with Inkscape (http://www.inkscape.org/) -->

<svg
   width="336.07101"
   height="500"
   viewBox="0 0 88.918786 132.29166"
   version="1.1"
   id="svg1"
   xml:space="preserve"
   inkscape:version="1.3 (0e150ed6c4, 2023-07-21)"
   sodipodi:docname="F.svg"
   xmlns:inkscape="http://www.inkscape.org/namespaces/inkscape"
   xmlns:sodipodi="http://sodipodi.sourceforge.net/DTD/sodipodi-0.dtd"
   xmlns:xlink="http://www.w3.org/1999/xlink"
   xmlns="http://www.w3.org/2000/svg"
   xmlns:svg="http://www.w3.org/2000/svg"><sodipodi:namedview
     id="namedview1"
     pagecolor="#505050"
     bordercolor="#eeeeee"
     borderopacity="1"
     inkscape:showpageshadow="0"
     inkscape:pageopacity="0"
     inkscape:pagecheckerboard="0"
     inkscape:deskcolor="#505050"
     inkscape:document-units="mm"
     showguides="true"
     inkscape:zoom="0.9007973"
     inkscape:cx="416.29787"
     inkscape:cy="137.10077"
     inkscape:window-width="1920"
     inkscape:window-height="974"
     inkscape:window-x="-11"
     inkscape:window-y="-11"
     inkscape:window-maximized="1"
     inkscape:current-layer="layer1" /><defs
     id="defs1"><linearGradient
       id="linearGradient2"
       inkscape:collect="always"><stop
         style="stop-color:#262fee;stop-opacity:1;"
         offset="0"
         id="stop2" /><stop
         style="stop-color:#dd1e82;stop-opacity:1;"
         offset="1"
         id="stop3" /></linearGradient><linearGradient
       inkscape:collect="always"
       xlink:href="#linearGradient2"
       id="linearGradient3"
       x1="0.45719349"
       y1="15.366083"
       x2="66.591614"
       y2="70.653961"
       gradientUnits="userSpaceOnUse" /></defs><g
     inkscape:label="Layer 1"
     inkscape:groupmode="layer"
     id="layer1"><path
       id="path25"
       style="stroke-width:1.52249;stroke-linecap:round;stroke-linejoin:bevel;stroke-miterlimit:5.5;fill:url(#linearGradient3);fill-opacity:1"
       inkscape:transform-center-x="-4.5345653"
       d="M 0.45719348,3.2216071e-5 V 30.732134 H 31.189291 V 3.2216071e-5 Z m 42.67819452,0 V 30.732134 L 61.710396,20.241933 V 30.732134 L 85.96832,17.031222 v 13.700912 h 2.950481 V 3.2216071e-5 H 85.96832 V 13.697427 L 61.710396,3.2216071e-5 V 10.490233 Z M 0.45719348,42.678229 v 36.03171 H 12.790121 v -36.03171 z m 18.39565052,0 v 36.03171 h 12.336447 v -36.03171 z m 24.282544,0 V 73.410332 L 61.710396,62.920131 V 73.410332 L 88.918801,58.046041 61.710396,42.678229 V 53.168428 Z M 25.861554,88.447577 c -1.17794,0 -2.141649,0.974249 -2.141649,2.152196 v 9.224205 c 0,1.265902 -0.0096,1.696812 -0.06681,1.979882 -2e-4,0.009 -2e-4,0.0188 0,0.0282 -0.161216,0.80611 -0.562585,1.53514 -1.181597,2.08537 -0.0047,-5e-5 -0.0094,-5e-5 -0.01406,0 -0.250904,0.22813 -0.538692,0.44833 -1.635244,1.09017 -1.011365,0.58905 -1.35252,1.91768 -0.742017,2.92585 0.591571,1.0157 1.926691,1.3633 2.936413,0.74203 0.03811,-0.0232 0.082,-0.0444 0.119565,-0.0668 0.945913,-0.56754 1.604469,-0.97523 2.204946,-1.51566 1.285519,-1.16574 2.198212,-2.71448 2.524962,-4.4521 v -0.014 c 0.15189,-0.7856 0.147972,-1.58464 0.147701,-2.658597 v -0.144186 -9.224203 c 0,-1.177941 -0.974264,-2.152196 -2.152196,-2.152196 z m -19.7636355,0.01406 c -1.177932,0 -2.141647,0.974244 -2.141647,2.152197 v 7.191571 c 0,1.586471 -0.003,2.893545 0.105495,3.998455 0.11351,1.17781 0.37959,2.25696 0.945984,3.27049 0.574898,1.0547 1.391886,1.80446 2.310444,2.50036 0.00469,5e-5 0.00937,5e-5 0.01406,0 0.896442,0.6443 2.014195,1.32736 3.3654445,2.13811 l 8.306353,4.98312 c 1.441032,0.86192 2.405895,1.4591 3.094662,1.96933 0.657785,0.48064 0.950142,0.80615 1.142913,1.1429 0.187482,0.33115 0.321415,0.75742 0.400898,1.56845 0.08254,0.84802 0.07737,1.98143 0.07737,3.6538 v 1.94119 l -0.291887,-0.29187 c -0.0046,-0.005 -0.0093,-0.009 -0.01406,-0.014 -0.847743,-0.80922 -2.200663,-0.81364 -3.027842,0.014 -0.0048,0.005 -0.0094,0.009 -0.01406,0.014 -0.809275,0.84772 -0.81366,2.20066 0.01406,3.02785 l 3.959755,3.94921 c 0.0046,0.005 0.0093,0.009 0.01407,0.014 0.847747,0.80922 2.20418,0.81366 3.031359,-0.014 l 3.802907,-3.94921 c 1.009971,-0.80861 1.074758,-1.99055 0.296439,-3.04185 -0.778318,-1.0513 -2.621748,-0.79939 -3.170952,-5.8e-4 l -0.291886,0.29189 v -2.00801 c 0,-1.58648 -0.01081,-2.89353 -0.119565,-3.99844 -0.113511,-1.17781 -0.376063,-2.25697 -0.942468,-3.2705 -0.574626,-1.05028 -1.38375,-1.80629 -2.299897,-2.50034 -0.0046,-0.004 -0.0093,-0.007 -0.01406,-0.011 -0.896449,-0.64432 -2.024727,-1.31682 -3.375994,-2.12759 l -8.306353,-4.99716 c -1.441021,-0.86194 -2.409397,-1.44507 -3.0981785,-1.95526 -0.657715,-0.48066 -0.936099,-0.80622 -1.128848,-1.14292 -0.187617,-0.33093 -0.332098,-0.75744 -0.411445,-1.56843 -0.08254,-0.84805 -0.08089,-1.981456 -0.08089,-3.653826 v -7.124753 c 0,-1.177932 -0.974241,-2.152197 -2.152195,-2.152197 z m 4.0652585,23.308433 c -0.4113035,-0.0272 -0.8326895,0.0632 -1.2097325,0.29541 -0.04014,0.0245 -0.07874,0.0565 -0.119565,0.0809 -0.945908,0.56755 -1.604457,0.96118 -2.204944,1.50163 -1.288404,1.16837 -2.200126,2.72375 -2.524963,4.46615 -0.154276,0.78962 -0.147701,1.57948 -0.147701,2.65859 v 0.14418 4.04065 l -0.29188,-0.29192 c -0.00462,-0.005 -0.0093,-0.009 -0.01406,-0.014 -0.847726,-0.80921 -2.204147,-0.81359 -3.03135802,0.014 -0.003592,0.005 -0.007122,0.009 -0.01059,0.014 -0.809292,0.84773 -0.816625,2.20417 0.01059,3.03135 l 3.94920702,3.95978 c 0.00469,5e-5 0.00938,5e-5 0.01407,0 0.847726,0.80922 2.204154,0.82711 3.031358,0 l 3.9597595,-3.95978 c 0.0048,-0.005 0.0094,-0.009 0.01406,-0.014 0.809292,-0.84772 0.813677,-2.20416 -0.01406,-3.03135 -0.0046,-0.005 -0.0093,-0.009 -0.01406,-0.014 -0.847738,-0.80921 -2.2041475,-0.81359 -3.0313625,0.014 l -0.305948,0.30594 v -4.05471 c 0,-1.26591 0.02454,-1.6967 0.08089,-1.97986 0.161214,-0.80614 0.562582,-1.53515 1.181597,-2.08539 0.00469,5e-5 0.00937,5e-5 0.01406,0 0.250908,-0.22812 0.5386935,-0.43424 1.6352485,-1.0761 0.957037,-0.5483 1.310013,-1.75612 0.847515,-2.73949 0.02272,0.13097 0.0056,0.26574 -0.04923,0.38685 l -0.01406,0.0246 -0.03868,-0.62246 c -0.37204,-0.62852 -1.030649,-1.00906 -1.71613,-1.05499 z m 1.716132,1.055 c 0.04151,0.0681 0.06877,0.14037 0.101974,0.211 -0.0125,-0.074 -0.03747,-0.14535 -0.07385,-0.211 -0.005,-0.009 -0.02337,0.009 -0.02814,0 z"
       inkscape:transform-center-y="-5.5590342e-05"
       sodipodi:nodetypes="cccccccccccccccccccccccccccccccccccccsscccccccccccccscccsscccccccccscccccccccczccscccccccccssccsccccsccccccccccccccccsccccccccssscsss" /></g></svg>
